<svg height="512" viewBox="0 0 300 300" width="512" xmlns="http://www.w3.org/2000/svg"><g fill="#edc2c5"><path d="M177.161 102.997c13.473-6.245 24-21.251 24-36.939 0-2.209-1.789-4-4-4H98.407a55.444 55.444 0 00-42.508 19.779 55.44 55.44 0 00-12.242 45.252l12.391 71.65a4 4 0 003.941 3.318h9.172v60c0 2.209 1.789 4 4 4h64c2.211 0 4-1.791 4-4v-22.342l14.692 3.147c1.488.318 2.972.47 4.437.47a20.84 20.84 0 0020.188-15.715l7.809-30.455c6.308-6.654 8.73-16.082 6.09-24.598a3.991 3.991 0 00-.469-.94l-13.182-19.441-3.564-9.219v-39.967zm-8 3.061v37.654c0 .494.09.982.27 1.443l2.037 5.269-48.936 3.237c-2.975-.012-5.768.99-8.061 2.806l-9.31-15.518v-17.638c0-9.514 7.738-17.254 17.254-17.254h46.746zm-74.625 68.127c-.038-.09-.049-.187-.094-.275a4 4 0 00-3.57-2.197h-2.883c-4.453 0-8.66-2.858-10.711-7.281-1.774-3.82-1.434-8.137.934-11.844 2.609-4.088 7.024-6.529 11.808-6.529h8.876l10.835 18.058c.023.04.058.066.083.104-.093.564-.191 1.129-.196 1.691-.017.152-1.064 10.901-1.758 23.819zM51.54 125.726A47.453 47.453 0 0162.02 86.99a47.463 47.463 0 0136.387-16.932h94.465c-2.109 14.668-15.379 28-28.883 28h-41.574c-13.926 0-25.254 11.328-25.254 25.254v14.746H90.02c-7.531 0-14.465 3.822-18.551 10.225-3.867 6.056-4.394 13.17-1.449 19.516 2.664 5.736 7.645 9.863 13.36 11.33l-11.045 14.966c-.064-.003-.117-.037-.182-.037h-8.797zm81.621 132.332h-56v-57.029l13.81-18.714 16.407 19.142a329.715 329.715 0 00-.107 5.298c-.16 14.858 10.215 27.889 24.668 30.984l1.223.262v20.057zm50.923-68.392l-29.954-7.488a3.992 3.992 0 00-4.848 2.91 3.997 3.997 0 002.91 4.852l27.899 6.975-2.109 8.226-27.852-6.962c-2.148-.551-4.316.768-4.848 2.91a3.997 3.997 0 002.91 4.852l27.803 6.95-3.268 12.742a12.855 12.855 0 01-15.195 9.408h-.004l-23.918-5.123c-10.746-2.301-18.461-12.004-18.34-23.074.199-18.531 2.289-39.932 2.328-40.482a4.717 4.717 0 011.441-3.35c.902-.879 2.09-1.358 3.656-1.358l.043.002 52.398-3.453 11.805 17.41c1.293 4.643.167 9.841-2.857 14.053zm53.077-83.608c2.211 0 4-1.791 4-4v-8c0-2.209-1.789-4-4-4s-4 1.791-4 4v8c0 2.209 1.789 4 4 4zm0 8c-2.211 0-4 1.791-4 4v8c0 2.209 1.789 4 4 4s4-1.791 4-4v-8c0-2.209-1.789-4-4-4zm-8-8h-8c-2.211 0-4 1.791-4 4s1.789 4 4 4h8c2.211 0 4-1.791 4-4s-1.789-4-4-4zm24 0h-8c-2.211 0-4 1.791-4 4s1.789 4 4 4h8c2.211 0 4-1.791 4-4s-1.789-4-4-4zm-63.99-63.563a4.276 4.276 0 100-8.553 4.276 4.276 0 000 8.553z"/><path d="M147.989 146.74c3.5 0 7-1.275 10.402-3.828a4.002 4.002 0 00-4.805-6.399c-3.918 2.943-7.266 2.951-11.199 0a4.002 4.002 0 00-5.598.799 3.995 3.995 0 00.801 5.6c3.403 2.553 6.903 3.828 10.399 3.828z"/></g></svg>