<svg height="512" viewBox="0 0 300 300" width="512" xmlns="http://www.w3.org/2000/svg"><g fill="#edc2c5"><path d="M168 50c2.211 0 4-1.791 4-4v-8c0-2.209-1.789-4-4-4s-4 1.791-4 4v8c0 2.209 1.789 4 4 4zm0 8c-2.211 0-4 1.791-4 4v8c0 2.209 1.789 4 4 4s4-1.791 4-4v-8c0-2.209-1.789-4-4-4zm-4-4c0-2.209-1.789-4-4-4h-8c-2.211 0-4 1.791-4 4s1.789 4 4 4h8c2.211 0 4-1.791 4-4zm12 4h8c2.211 0 4-1.791 4-4s-1.789-4-4-4h-8c-2.211 0-4 1.791-4 4s1.789 4 4 4zm76 28c-1.41 0-2.743.289-4 .737V86c0-6.617-5.383-12-12-12-1.41 0-2.743.289-4 .737V70c0-6.617-5.383-12-12-12s-12 5.383-12 12v4.737c-1.257-.448-2.59-.737-4-.737-6.617 0-12 5.383-12 12v56.871l-13.465-15.992a11.456 11.456 0 00-15.723-1.728 11.467 11.467 0 00-3.102 14.623l16.188 43.836V262c0 2.209 1.789 4 4 4H260c2.211 0 4-1.791 4-4V98c0-6.617-5.383-12-12-12zm4 172h-72.102v-75.106c0-.472-.082-.941-.246-1.385l-16.547-44.814a4.189 4.189 0 00-.316-.658 3.465 3.465 0 015.629-4.004l20.524 24.375a3.998 3.998 0 007.059-2.576V86c0-2.205 1.793-4 4-4s4 1.795 4 4v54.096c0 2.209 1.789 4 4 4s4-1.791 4-4V70c0-2.205 1.793-4 4-4s4 1.795 4 4v70.096c0 2.209 1.789 4 4 4s4-1.791 4-4V86c0-2.205 1.793-4 4-4s4 1.795 4 4v54.095c0 2.209 1.789 4 4 4s4-1.791 4-4V98c0-2.205 1.793-4 4-4s4 1.795 4 4v160zM137.188 125.148a11.46 11.46 0 00-15.723 1.732L108 142.871V86c0-6.617-5.383-12-12-12-1.41 0-2.743.289-4 .737V70c0-6.617-5.383-12-12-12s-12 5.383-12 12v4.737c-1.257-.448-2.59-.737-4-.737-6.617 0-12 5.383-12 12v.737c-1.257-.448-2.59-.737-4-.737-6.617 0-12 5.383-12 12v164c0 2.209 1.789 4 4 4h80.102c2.211 0 4-1.791 4-4v-78.391l16.188-43.836a11.471 11.471 0 00-3.102-14.625zm-3.977 10.889c-.125.209-.23.43-.316.658l-16.547 44.814a3.992 3.992 0 00-.246 1.385V258H44V98c0-2.205 1.793-4 4-4s4 1.795 4 4v42.095c0 2.209 1.789 4 4 4s4-1.791 4-4V86c0-2.205 1.793-4 4-4s4 1.795 4 4v54.096c0 2.209 1.789 4 4 4s4-1.791 4-4V70c0-2.205 1.793-4 4-4s4 1.795 4 4v70.096c0 2.209 1.789 4 4 4s4-1.791 4-4V86c0-2.205 1.793-4 4-4s4 1.795 4 4v67.832a4.002 4.002 0 002.629 3.758 3.986 3.986 0 004.43-1.182l20.524-24.373a3.469 3.469 0 014.754-.526 3.47 3.47 0 01.874 4.528z"/><path d="M244 206h-12v-12c0-2.209-1.789-4-4-4h-16c-2.211 0-4 1.791-4 4v12h-12c-2.211 0-4 1.791-4 4v16c0 2.209 1.789 4 4 4h12v12c0 2.209 1.789 4 4 4h16c2.211 0 4-1.791 4-4v-12h12c2.211 0 4-1.791 4-4v-16c0-2.209-1.789-4-4-4zm-4 16h-12c-2.211 0-4 1.791-4 4v12h-8v-12c0-2.209-1.789-4-4-4h-12v-8h12c2.211 0 4-1.791 4-4v-12h8v12c0 2.209 1.789 4 4 4h12zm-136-16H92v-12c0-2.209-1.789-4-4-4H72c-2.211 0-4 1.791-4 4v12H56c-2.211 0-4 1.791-4 4v16c0 2.209 1.789 4 4 4h12v12c0 2.209 1.789 4 4 4h16c2.211 0 4-1.791 4-4v-12h12c2.211 0 4-1.791 4-4v-16c0-2.209-1.789-4-4-4zm-4 16H88c-2.211 0-4 1.791-4 4v12h-8v-12c0-2.209-1.789-4-4-4H60v-8h12c2.211 0 4-1.791 4-4v-12h8v12c0 2.209 1.789 4 4 4h12z"/></g></svg>