<svg xmlns="http://www.w3.org/2000/svg" width="559.789" height="559.789"><path d="M337.586 146.282h-.125s-16.602-18.695-31.098-5.183c-14.496 13.512-1.807 44.542 31.098 58.054l.125.019c32.904-13.512 45.584-44.561 31.096-58.073-14.487-13.512-31.096 5.183-31.096 5.183zm142.213 122.39c-21.764-80.517-111.652-30.438-111.652-30.438l-44.408-10.098 23.629 45.202c-9.16 51.876 21.803 86.665 21.803 86.665 15.951 19.929 37.619 31.355 60.627 37.504v26.087h9.562v-23.82c6.35 1.291 12.746 2.189 19.125 2.821v20.999h9.562v-20.253c48.117 2.648 91.742-10.127 91.742-10.127-44.992-6.856-61.783-45.623-79.99-124.542zm-85.67-5.852c-6.092.039-11.055-4.877-11.094-10.968-.037-6.091 4.877-11.054 10.969-11.092s11.055 4.877 11.092 10.968c.029 6.091-4.877 11.054-10.967 11.092zm-222.53 160.774h9.562v-26.307c23.132-8.032 44.408-20.568 60.731-39.646 0 0 38.862-40.832 26.479-100.923l29.396-52.814-56.324 12.364s-115.008-56.849-141.535 36.931C77.887 345.067 57.098 390.307 0 398.914c0 0 72.493 18.542 142.912 7.697v16.983h9.562v-18.656a217.691 217.691 0 0019.125-4.609v23.265zm43.93-200.908c7.201-.038 13.072 5.757 13.11 12.957.038 7.201-5.757 13.072-12.958 13.11-7.2.038-13.072-5.756-13.11-12.957-.037-7.2 5.767-13.062 12.958-13.11z" fill="#edc2c5"/></svg>