<svg height="512" viewBox="0 0 300 300" width="512" xmlns="http://www.w3.org/2000/svg"><g fill="#edc2c5"><path d="M62 60c2.211 0 4-1.791 4-4v-8c0-2.209-1.789-4-4-4s-4 1.791-4 4v8c0 2.209 1.789 4 4 4zm0 8c-2.211 0-4 1.791-4 4v8c0 2.209 1.789 4 4 4s4-1.791 4-4v-8c0-2.209-1.789-4-4-4zm-8 0c2.211 0 4-1.791 4-4s-1.789-4-4-4h-8c-2.211 0-4 1.791-4 4s1.789 4 4 4zm16 0h8c2.211 0 4-1.791 4-4s-1.789-4-4-4h-8c-2.211 0-4 1.791-4 4s1.789 4 4 4zm82-8c-20.953 0-38 17.047-38 38s17.047 38 38 38 38-17.047 38-38-17.047-38-38-38zm0 68c-16.543 0-30-13.457-30-30s13.457-30 30-30 30 13.457 30 30-13.457 30-30 30z"/><path d="M163.789 86.137c-1.86-1.176-4.332-.617-5.516 1.248l-8.922 14.146-3.344-3.496a4.001 4.001 0 00-5.656-.129 4.003 4.003 0 00-.125 5.656l6.883 7.201a4.001 4.001 0 006.273-.63l11.656-18.48a3.994 3.994 0 00-1.249-5.516zm-70.925 73.549C100.739 154.726 106 145.976 106 136c0-15.44-12.562-28-28-28s-28 12.56-28 28c0 9.976 5.261 18.726 13.137 23.686C52.962 165.049 46 175.721 46 188v64c0 2.209 1.789 4 4 4h56c2.211 0 4-1.791 4-4v-64c0-12.279-6.961-22.95-17.136-28.314zM58 136c0-11.027 8.973-20 20-20s20 8.973 20 20-8.973 20-20 20-20-8.973-20-20zm44 112H54v-60c0-13.234 10.766-24 24-24s24 10.766 24 24zm138.864-88.314C248.739 154.726 254 145.976 254 136c0-15.44-12.562-28-28-28s-28 12.56-28 28c0 9.976 5.261 18.726 13.137 23.686C200.962 165.049 194 175.721 194 188v64c0 2.209 1.789 4 4 4h56c2.211 0 4-1.791 4-4v-64c0-12.279-6.961-22.95-17.136-28.314zM206 136c0-11.027 8.973-20 20-20s20 8.973 20 20-8.973 20-20 20-20-8.973-20-20zm44 112h-48v-60c0-13.234 10.766-24 24-24s24 10.766 24 24zm-73.172-50.828a3.997 3.997 0 00-5.656 0 3.997 3.997 0 000 5.656l1.172 1.172h-40.687l1.172-1.172a3.997 3.997 0 000-5.656 3.997 3.997 0 00-5.656 0l-8 8a3.997 3.997 0 000 5.656l8 8c.781.781 1.804 1.172 2.828 1.172s2.047-.391 2.828-1.172a3.997 3.997 0 000-5.656L131.656 212h40.687l-1.172 1.172a3.997 3.997 0 000 5.656c.781.781 1.804 1.172 2.828 1.172s2.047-.391 2.828-1.172l8-8a3.997 3.997 0 000-5.656z"/></g></svg>