<!-- <svg id="Layer_1" enable-background="new 0 0 512.011 512.011" height="512" viewBox="0 0 512.011 512.011" width="512" xmlns="http://www.w3.org/2000/svg"><path  style="fill:#edc2c5;" d="m492.009 90.636c-8.989-12.186-21.438-18.626-36-18.626-32.391 0-57.8 44.68-72.031 74.67l-60.209-27.79c-41.905-19.324-91.46-20.318-135.52 0l-60.209 27.79c-14.13-29.779-39.665-74.67-72.031-74.67-14.563 0-27.011 6.441-36 18.626-21.048 28.531-20 86.346-20 125.374 0 46.98 19.679 90.734 56.91 126.533 25.681 24.693 51.329 37.57 55.743 39.69 9.293 5.096-30.672-16.523 75.586 40.696 43.499 23.405 94.44 22.114 135.52 0 106.78-57.5 65.981-35.434 75.586-40.696 4.415-2.121 30.063-14.998 55.743-39.69 37.231-35.799 56.91-79.553 56.91-126.533.002-40.999.675-97.351-19.998-125.374zm-460 125.373c0-39.142 0-112 24-112 4.038 0 14.92 6.725 30.098 31.929 8.742 14.517 15.353 29.313 17.902 35.279v168.631c-28.021-19.552-72-60.354-72-123.839zm376 123.839v-168.631c2.549-5.965 9.16-20.762 17.902-35.279 15.178-25.204 26.061-31.929 30.098-31.929 24 0 24 72.858 24 112 0 52.365-29.755 94.413-72 123.839z"/></svg> -->

<svg id="man-with-mask" enable-background="new 0 0 300 300" height="512" viewBox="0 0 300 300" width="512" xmlns="http://www.w3.org/2000/svg"><g style="fill:#edc2c5;"><path d="m177.161 102.997c13.473-6.245 24-21.251 24-36.939 0-2.209-1.789-4-4-4h-98.754c-16.434 0-31.926 7.209-42.508 19.779-10.581 12.569-15.043 29.063-12.242 45.252l12.391 71.65c.332 1.918 1.996 3.318 3.941 3.318h9.172v60c0 2.209 1.789 4 4 4h64c2.211 0 4-1.791 4-4v-22.342l14.692 3.147c1.488.318 2.972.47 4.437.47 9.352 0 17.766-6.283 20.188-15.715l7.809-30.455c6.308-6.654 8.73-16.082 6.09-24.598-.113-.332-.273-.649-.469-.94l-13.182-19.441-3.564-9.219v-39.967zm-8 3.061v37.654c0 .494.09.982.27 1.443l2.037 5.269-48.936 3.237c-2.975-.012-5.768.99-8.061 2.806l-9.31-15.518v-17.638c0-9.514 7.738-17.254 17.254-17.254h46.746zm-74.625 68.127c-.038-.09-.049-.187-.094-.275-.68-1.348-2.062-2.197-3.57-2.197h-2.883c-4.453 0-8.66-2.858-10.711-7.281-1.774-3.82-1.434-8.137.934-11.844 2.609-4.088 7.024-6.529 11.808-6.529h8.876l10.835 18.058c.023.04.058.066.083.104-.093.564-.191 1.129-.196 1.691-.017.152-1.064 10.901-1.758 23.819zm-42.996-48.459c-2.398-13.86 1.422-27.976 10.48-38.736 9.059-10.76 22.32-16.932 36.387-16.932h94.465c-2.109 14.668-15.379 28-28.883 28h-41.574c-13.926 0-25.254 11.328-25.254 25.254v14.746h-7.141c-7.531 0-14.465 3.822-18.551 10.225-3.867 6.056-4.394 13.17-1.449 19.516 2.664 5.736 7.645 9.863 13.36 11.33l-11.045 14.966c-.064-.003-.117-.037-.182-.037h-8.797zm81.621 132.332h-56v-57.029l13.81-18.714 16.407 19.142c-.048 1.777-.088 3.551-.107 5.298-.16 14.858 10.215 27.889 24.668 30.984l1.223.262v20.057zm50.923-68.392-29.954-7.488c-2.141-.543-4.316.768-4.848 2.91-.539 2.145.766 4.316 2.91 4.852l27.899 6.975-2.109 8.226-27.852-6.962c-2.148-.551-4.316.768-4.848 2.91-.539 2.145.766 4.316 2.91 4.852l27.803 6.95-3.268 12.742c-1.726 6.734-8.406 10.873-15.195 9.408 0 0 0 0-.004 0l-23.918-5.123c-10.746-2.301-18.461-12.004-18.34-23.074.199-18.531 2.289-39.932 2.328-40.482.016-1.274.527-2.463 1.441-3.35.902-.879 2.09-1.358 3.656-1.358.016 0 .031.002.043.002l52.398-3.453 11.805 17.41c1.293 4.643.167 9.841-2.857 14.053z"/><path d="m237.161 106.058c2.211 0 4-1.791 4-4v-8c0-2.209-1.789-4-4-4s-4 1.791-4 4v8c0 2.209 1.789 4 4 4z"/><path d="m237.161 114.058c-2.211 0-4 1.791-4 4v8c0 2.209 1.789 4 4 4s4-1.791 4-4v-8c0-2.209-1.789-4-4-4z"/><path d="m229.161 106.058h-8c-2.211 0-4 1.791-4 4s1.789 4 4 4h8c2.211 0 4-1.791 4-4s-1.789-4-4-4z"/><path d="m253.161 106.058h-8c-2.211 0-4 1.791-4 4s1.789 4 4 4h8c2.211 0 4-1.791 4-4s-1.789-4-4-4z"/><path d="m189.171 42.495c2.362 0 4.276-1.915 4.276-4.277s-1.914-4.276-4.276-4.276-4.276 1.915-4.276 4.276c-.001 2.362 1.914 4.277 4.276 4.277z"/><path d="m147.989 146.74c3.5 0 7-1.275 10.402-3.828 1.766-1.326 2.121-3.834.797-5.6-1.324-1.768-3.828-2.125-5.602-.799-3.918 2.943-7.266 2.951-11.199 0-1.766-1.326-4.273-.963-5.598.799-1.328 1.768-.969 4.275.801 5.6 3.403 2.553 6.903 3.828 10.399 3.828z"/></g></svg>