<!-- <svg id="Layer_1" enable-background="new 0 0 512.181 512.181" height="512" viewBox="0 0 512.181 512.181" width="512" xmlns="http://www.w3.org/2000/svg"><g style="fill:#edc2c5;"><path d="m223.946 413.201c0 54.48-43.02 98.8-95.9 98.8s-95.9-44.32-95.9-98.8c0-75.16 82.32-142.78 85.83-145.63 5.87-4.76 14.28-4.76 20.15 0 3.51 2.85 85.82 70.471 85.82 145.63z"/></g><path style="fill:#edc2c5;" d="m480.036 144.001v184c0 130.234-130.274 216.744-248.378 172.482-3.105-1.164-4.198-5.01-2.204-7.659 16.61-22.062 26.491-49.688 26.491-79.622 0-88.73-87.67-162.38-97.66-170.48-11.226-9.104-26.016-12.69-40.208-9.666-3.111.663-6.042-1.701-6.042-4.882v-132.173c0-17.502 18.151-29.02 33.86-21.87 8.417 3.766 14.14 12.236 14.14 21.87v127.551c0 8.618 6.626 16.031 15.235 16.431 9.188.428 16.765-6.889 16.765-15.982v-168c0-21.31 25.88-32.018 40.97-16.97 4.34 4.35 7.03 10.35 7.03 16.97v167.551c0 8.618 6.626 16.031 15.235 16.431 9.188.428 16.765-6.889 16.765-15.982v-200c0-12.13 9-22.16 20.69-23.77 14.346-1.991 27.31 9.111 27.31 23.77v199.551c0 8.618 6.626 16.031 15.235 16.431 9.188.428 16.765-6.889 16.765-15.982v-184c0-13.427 10.951-24 24-24 13.253 0 24 10.759 24 24v228.669c0 2.456-1.786 4.544-4.212 4.929-52.809 8.383-97.68 48.872-107.568 107.772-1.46 8.71 4.43 16.96 13.15 18.41 8.6 1.45 16.95-4.34 18.41-13.15 8.6-51.2 50.74-82.65 96.27-82.63 8.82 0 15.95-7.18 15.95-16v-128c0-17.746 14.453-32.123 32.227-31.999 8.747.061 15.774 7.253 15.774 15.999z"/></svg> -->
<svg id="protective-gloves" enable-background="new 0 0 300 300" height="512" viewBox="0 0 300 300" width="512" xmlns="http://www.w3.org/2000/svg"><g style="fill:#edc2c5;"><path d="m168 50c2.211 0 4-1.791 4-4v-8c0-2.209-1.789-4-4-4s-4 1.791-4 4v8c0 2.209 1.789 4 4 4z"/><path d="m168 58c-2.211 0-4 1.791-4 4v8c0 2.209 1.789 4 4 4s4-1.791 4-4v-8c0-2.209-1.789-4-4-4z"/><path d="m164 54c0-2.209-1.789-4-4-4h-8c-2.211 0-4 1.791-4 4s1.789 4 4 4h8c2.211 0 4-1.791 4-4z"/><path d="m176 58h8c2.211 0 4-1.791 4-4s-1.789-4-4-4h-8c-2.211 0-4 1.791-4 4s1.789 4 4 4z"/><path d="m252 86c-1.41 0-2.743.289-4 .737v-.737c0-6.617-5.383-12-12-12-1.41 0-2.743.289-4 .737v-4.737c0-6.617-5.383-12-12-12s-12 5.383-12 12v4.737c-1.257-.448-2.59-.737-4-.737-6.617 0-12 5.383-12 12v56.871l-13.465-15.992c-3.945-4.68-10.852-5.445-15.723-1.728-4.52 3.449-5.816 9.672-3.102 14.623l16.188 43.836v78.39c0 2.209 1.789 4 4 4h80.102c2.211 0 4-1.791 4-4v-164c0-6.617-5.383-12-12-12zm4 172h-72.102v-75.106c0-.472-.082-.941-.246-1.385l-16.547-44.814c-.086-.228-.192-.449-.316-.658-.898-1.514-.524-3.461.875-4.526 1.465-1.121 3.562-.892 4.754.522l20.524 24.375c1.082 1.285 2.855 1.76 4.43 1.182 1.578-.576 2.629-2.078 2.629-3.758v-67.832c0-2.205 1.793-4 4-4s4 1.795 4 4v54.096c0 2.209 1.789 4 4 4s4-1.791 4-4v-70.096c0-2.205 1.793-4 4-4s4 1.795 4 4v16 54.096c0 2.209 1.789 4 4 4s4-1.791 4-4v-54.096c0-2.205 1.793-4 4-4s4 1.795 4 4v12 40.902 1.193c0 2.209 1.789 4 4 4s4-1.791 4-4v-1.193-40.902c0-2.205 1.793-4 4-4s4 1.795 4 4v160z"/><path d="m137.188 125.148c-4.875-3.711-11.774-2.951-15.723 1.732l-13.465 15.991v-56.871c0-6.617-5.383-12-12-12-1.41 0-2.743.289-4 .737v-4.737c0-6.617-5.383-12-12-12s-12 5.383-12 12v4.737c-1.257-.448-2.59-.737-4-.737-6.617 0-12 5.383-12 12v.737c-1.257-.448-2.59-.737-4-.737-6.617 0-12 5.383-12 12v164c0 2.209 1.789 4 4 4h80.102c2.211 0 4-1.791 4-4v-78.391l16.188-43.836c2.714-4.951 1.417-11.173-3.102-14.625zm-3.977 10.889c-.125.209-.23.43-.316.658l-16.547 44.814c-.164.444-.246.912-.246 1.385v75.106h-72.102v-160c0-2.205 1.793-4 4-4s4 1.795 4 4v40.902 1.193c0 2.209 1.789 4 4 4s4-1.791 4-4v-1.193-40.902-12c0-2.205 1.793-4 4-4s4 1.795 4 4v54.096c0 2.209 1.789 4 4 4s4-1.791 4-4v-54.096-16c0-2.205 1.793-4 4-4s4 1.795 4 4v70.096c0 2.209 1.789 4 4 4s4-1.791 4-4v-54.096c0-2.205 1.793-4 4-4s4 1.795 4 4v67.832c0 1.68 1.051 3.182 2.629 3.758 1.582.58 3.352.105 4.43-1.182l20.524-24.373c1.195-1.416 3.277-1.644 4.754-.526 1.397 1.067 1.772 3.015.874 4.528z"/><path d="m244 206h-12v-12c0-2.209-1.789-4-4-4h-16c-2.211 0-4 1.791-4 4v12h-12c-2.211 0-4 1.791-4 4v16c0 2.209 1.789 4 4 4h12v12c0 2.209 1.789 4 4 4h16c2.211 0 4-1.791 4-4v-12h12c2.211 0 4-1.791 4-4v-16c0-2.209-1.789-4-4-4zm-4 16h-12c-2.211 0-4 1.791-4 4v12h-8v-12c0-2.209-1.789-4-4-4h-12v-8h12c2.211 0 4-1.791 4-4v-12h8v12c0 2.209 1.789 4 4 4h12z"/><path d="m104 206h-12v-12c0-2.209-1.789-4-4-4h-16c-2.211 0-4 1.791-4 4v12h-12c-2.211 0-4 1.791-4 4v16c0 2.209 1.789 4 4 4h12v12c0 2.209 1.789 4 4 4h16c2.211 0 4-1.791 4-4v-12h12c2.211 0 4-1.791 4-4v-16c0-2.209-1.789-4-4-4zm-4 16h-12c-2.211 0-4 1.791-4 4v12h-8v-12c0-2.209-1.789-4-4-4h-12v-8h12c2.211 0 4-1.791 4-4v-12h8v12c0 2.209 1.789 4 4 4h12z"/></g></svg>