<svg id="Capa_1" enable-background="new 0 0 512 512" height="512" viewBox="0 0 512 512" width="512" xmlns="http://www.w3.org/2000/svg"><g><path d="m189.051 0c-45.166 0-81.78 36.614-81.78 81.78s36.614 81.78 81.78 81.78l20-86.56z" fill="#00eecf"/><path d="m189.051 163.56c45.166 0 81.78-36.614 81.78-81.78s-36.614-81.78-81.78-81.78z" fill="#00c6cd"/><g><path d="m280.973 251.78c0-17.082-13.848-30.93-30.93-30.93s-30.93 13.848-30.93 30.93v-156.472c0-16.854-13.214-31.1-30.061-31.562-17.479-.479-31.799 13.547-31.799 30.918v195.545h-14.634c-15.409 0-27.9 12.491-27.9 27.9v48.885c0 80.084 64.921 145.005 145.005 145.005 7.232 0 14.337-.537 21.285-1.559l20-140.145-20-109.215z" fill="#ffbeaa"/><path d="m374.668 240.472c-17.479-.479-31.799 13.547-31.799 30.918v-9.667c0-16.853-13.214-31.1-30.061-31.562-17.479-.479-31.799 13.547-31.799 30.918v249.361c69.991-10.296 123.72-70.593 123.72-143.445v-94.961c0-16.854-13.214-31.1-30.061-31.562z" fill="#ffbeaa"/></g></g></svg>