<!-- <svg id="Layer_1" enable-background="new 0 0 512.003 512.003" height="512" viewBox="0 0 512.003 512.003" width="512" xmlns="http://www.w3.org/2000/svg"><g style="fill:#edc2c5;"><path d="m199.239 380.892c-3.64-30.84-21.63-56.85-46.81-71.65 14.47-13.18 23.57-32.17 23.57-53.24v-16c0-39.7-32.3-72-72-72s-72 32.3-72 72v16c0 20.96 9.01 39.86 23.35 53.03-25.54 14.87-43.7 41.22-47.18 72.51l-8.07 72.69c-1.053 9.543 6.424 17.77 15.9 17.77h176c9.567 0 17.022-8.365 15.89-17.88z"/><path d="m511.889 454.122-8.65-73.23c-3.64-30.84-21.63-56.85-46.81-71.65 14.47-13.18 23.57-32.17 23.57-53.24v-16c0-39.7-32.3-72-72-72s-72 32.3-72 72v16c0 20.96 9.01 39.86 23.35 53.03-25.54 14.87-43.7 41.22-47.18 72.51l-8.07 72.69c-1.053 9.543 6.424 17.77 15.9 17.77h176c9.567 0 17.022-8.366 15.89-17.88z"/><path d="m98.228 79.886c-2.976 5.034-2.971 11.216.011 16.249 1.474 2.493.545 1.282 34.443 35.18 6.247 6.248 16.379 6.249 22.627 0 6.249-6.248 6.249-16.379 0-22.627l-4.687-4.687h210.75l-4.686 4.687c-10.11 10.109-2.811 27.313 11.313 27.313 4.095 0 8.189-1.562 11.313-4.687 35.367-35.367 32.954-32.686 34.409-35.117 3.29-5.493 3.011-12.528-.934-17.782-1.088-1.448 2.151 1.899-33.475-33.728-6.248-6.249-16.379-6.249-22.627 0-6.249 6.248-6.249 16.379 0 22.627l4.686 4.687h-210.75l4.686-4.686c6.249-6.249 6.249-16.379 0-22.627-6.249-6.249-16.38-6.248-22.627 0-33.971 33.972-32.979 32.698-34.452 35.198z"/></g></svg> -->
<svg id="social-distancing" enable-background="new 0 0 300 300" height="512" viewBox="0 0 300 300" width="512" xmlns="http://www.w3.org/2000/svg"><g style="fill:#edc2c5;"><path d="m62 60c2.211 0 4-1.791 4-4v-8c0-2.209-1.789-4-4-4s-4 1.791-4 4v8c0 2.209 1.789 4 4 4z"/><path d="m62 68c-2.211 0-4 1.791-4 4v8c0 2.209 1.789 4 4 4s4-1.791 4-4v-8c0-2.209-1.789-4-4-4z"/><path d="m54 68c2.211 0 4-1.791 4-4s-1.789-4-4-4h-8c-2.211 0-4 1.791-4 4s1.789 4 4 4z"/><path d="m70 68h8c2.211 0 4-1.791 4-4s-1.789-4-4-4h-8c-2.211 0-4 1.791-4 4s1.789 4 4 4z"/><path d="m152 60c-20.953 0-38 17.047-38 38s17.047 38 38 38 38-17.047 38-38-17.047-38-38-38zm0 68c-16.543 0-30-13.457-30-30s13.457-30 30-30 30 13.457 30 30-13.457 30-30 30z"/><path d="m163.789 86.137c-1.86-1.176-4.332-.617-5.516 1.248l-8.922 14.146-3.344-3.496c-1.528-1.596-4.051-1.656-5.656-.129-1.594 1.527-1.652 4.058-.125 5.656l6.883 7.201c.758.793 1.805 1.236 2.891 1.236.133 0 .266-.006.398-.02 1.227-.123 2.328-.805 2.984-1.846l11.656-18.48c1.181-1.868.622-4.339-1.249-5.516z"/><path d="m92.864 159.686c7.875-4.96 13.136-13.71 13.136-23.686 0-15.44-12.562-28-28-28s-28 12.56-28 28c0 9.976 5.261 18.726 13.137 23.686-10.175 5.363-17.137 16.035-17.137 28.314v64c0 2.209 1.789 4 4 4h56c2.211 0 4-1.791 4-4v-64c0-12.279-6.961-22.95-17.136-28.314zm-34.864-23.686c0-11.027 8.973-20 20-20s20 8.973 20 20-8.973 20-20 20-20-8.973-20-20zm44 112h-48v-60c0-13.234 10.766-24 24-24s24 10.766 24 24z"/><path d="m240.864 159.686c7.875-4.96 13.136-13.71 13.136-23.686 0-15.44-12.562-28-28-28s-28 12.56-28 28c0 9.976 5.261 18.726 13.137 23.686-10.175 5.363-17.137 16.035-17.137 28.314v64c0 2.209 1.789 4 4 4h56c2.211 0 4-1.791 4-4v-64c0-12.279-6.961-22.95-17.136-28.314zm-34.864-23.686c0-11.027 8.973-20 20-20s20 8.973 20 20-8.973 20-20 20-20-8.973-20-20zm44 112h-48v-60c0-13.234 10.766-24 24-24s24 10.766 24 24z"/><path d="m176.828 197.172c-1.562-1.563-4.094-1.563-5.656 0-1.563 1.562-1.563 4.094 0 5.656l1.172 1.172h-40.687l1.172-1.172c1.563-1.562 1.563-4.094 0-5.656-1.562-1.563-4.094-1.563-5.656 0l-8 8c-1.563 1.562-1.563 4.094 0 5.656l8 8c.781.781 1.804 1.172 2.828 1.172s2.047-.391 2.828-1.172c1.563-1.562 1.563-4.094 0-5.656l-1.173-1.172h40.687l-1.172 1.172c-1.563 1.562-1.563 4.094 0 5.656.781.781 1.804 1.172 2.828 1.172s2.047-.391 2.828-1.172l8-8c1.563-1.562 1.563-4.094 0-5.656z"/></g></svg>